<?xml version="1.0" encoding="utf-8"?>
<!-- Generator: Adobe Illustrator 26.1.0, SVG Export Plug-In . SVG Version: 6.00 Build 0)  -->
<svg version="1.1" id="Capa_1" xmlns="http://www.w3.org/2000/svg" xmlns:xlink="http://www.w3.org/1999/xlink" x="0px" y="0px"
	 viewBox="0 0 183.8 183.8" style="enable-background:new 0 0 183.8 183.8;" xml:space="preserve">
<style type="text/css">
	.st0{fill:#FFFFFF;}
</style>
<path class="st0" d="M54.7,9.1c-15.6,9-26.8,23.6-31.5,41C18.6,67.5,21,85.6,30,101.3C42,122.1,64.5,135,88.5,135
	c7.6,0,15.1-1.3,22.3-3.8l30.4,52.6l21.6-12.5l-30.4-52.6c10.3-8.8,17.6-20.4,21.2-33.7c4.7-17.4,2.3-35.6-6.7-51.2
	C134.9,12.9,112.5,0,88.4,0C76.6,0,65,3.1,54.7,9.1z M125.3,46.3c5.7,9.8,7.2,21.3,4.2,32.3s-10,20.1-19.8,25.8
	c-6.5,3.7-13.8,5.7-21.2,5.7c-15.2,0-29.3-8.1-36.9-21.3c-5.7-9.8-7.2-21.3-4.2-32.2c2.9-11,10-20.1,19.8-25.8
	C73.7,27,81,25,88.4,25C103.6,25,117.7,33.1,125.3,46.3z"/>
</svg>
